<svg xmlns="http://www.w3.org/2000/svg" width="16" height="16" viewBox="0 0 16 16">
    <path fill="#F34B3C" fill-rule="evenodd" d="M9.49 8.261l2.256 2.256a.87.87 0 0 1-.112 1.323c-.351.253-.844.179-1.15-.127L8.261 9.489a.37.37 0 0 0-.522 0l-2.256 2.257a.87.87 0 0 1-1.323-.112c-.253-.35-.179-.844.127-1.15l2.224-2.223a.369.369 0 0 0 0-.522L4.255 5.483a.869.869 0 0 1 .111-1.323c.351-.253.844-.179 1.15.127l2.223 2.224a.369.369 0 0 0 .522 0l2.256-2.256a.869.869 0 0 1 1.323.111c.253.351.179.844-.127 1.15L9.489 7.739a.37.37 0 0 0 0 .522"/>
</svg>
