<svg xmlns="http://www.w3.org/2000/svg" width="24" height="24" viewBox="0 0 24 24"><g fill="none" fill-rule="evenodd"><path fill="#FFF" d="M9.26 3.54c-2.16.76-4.03 2.4-5.08 4.44-.35.7-.64 1.45-.75 2.27-.4 1.93-.12 4.03.75 5.78.6 1.16 1.4 2.15 2.45 2.97.94.76 2.05 1.34 3.27 1.63 1.52.4 3.1.4 4.55.06 1.34-.3 2.63-.94 3.68-1.93 1.1-1 1.86-2.28 2.27-3.74.47-1.5.53-3.15.23-4.72h-8.4v3.5h4.85c-.18 1.12-.88 2.17-1.8 2.75-.6.4-1.3.64-2 .76-.7.13-1.45.13-2.15 0-.7-.1-1.4-.46-2-.87-.92-.64-1.68-1.63-2.03-2.74-.4-1.12-.4-2.34 0-3.5.3-.77.7-1.52 1.28-2.1.7-.77 1.64-1.3 2.7-1.47.86-.17 1.74-.17 2.6.12.7.23 1.4.64 1.94 1.1l1.63-1.62c.3-.3.58-.6.88-.88-.82-.76-1.8-1.4-2.86-1.8-1.93-.65-4.1-.65-6 0z"/><path fill="#EA4335" d="M9.26 3.54c1.92-.64 4.08-.64 6 .06 1.06.4 2.05 1 2.87 1.8l-.88.88-1.63 1.64c-.53-.53-1.23-.94-1.93-1.1-.82-.24-1.76-.3-2.63-.13-1 .23-1.93.75-2.7 1.45-.57.58-1.04 1.34-1.27 2.1-1-.76-1.92-1.52-2.92-2.27C5.23 5.93 7.1 4.3 9.26 3.54z"/><path fill="#FBBC05" d="M3.43 10.25c.17-.76.4-1.52.75-2.27 1 .75 1.93 1.5 2.92 2.27-.4 1.1-.4 2.33 0 3.5-1 .76-1.92 1.52-2.92 2.28-.87-1.8-1.16-3.85-.75-5.78z"/><path fill="#4285F4" d="M12.18 10.3h8.4c.3 1.58.23 3.22-.24 4.73-.4 1.4-1.16 2.7-2.27 3.74-.94-.76-1.87-1.46-2.86-2.22.94-.64 1.58-1.63 1.82-2.74h-4.84v-3.5z"/><path fill="#34A853" d="M4.18 16.03c1-.76 1.93-1.52 2.92-2.28.35 1.1 1.1 2.1 2.04 2.74.6.4 1.3.7 2 .87.7.1 1.4.1 2.14 0 .7-.12 1.4-.4 2-.76.92.77 1.85 1.47 2.85 2.23-1.05.93-2.28 1.57-3.68 1.92-1.52.35-3.1.35-4.55-.06-1.17-.3-2.27-.88-3.27-1.64-1-.88-1.86-1.93-2.45-3.03z"/></g></svg>