<svg xmlns="http://www.w3.org/2000/svg" width="24" height="24" viewBox="0 0 24 24">
  <g fill="none" fill-rule="evenodd">
    <path fill="#F00" fill-opacity=".18" d="M22,0 L2,0 C0.9,0 0,0.9 0,2 L0,22 C0,23.1 0.9,24 2,24 L22,24 C23.1,24 24,23.1 24,22 L24,2 C24,0.9 23.1,0 22,0 L22,0 Z" opacity="0"/>
    <g transform="translate(2.667 2.667)">
      <path fill="#FFF" d="M6.59166667,0.875 C4.43333333,1.63333333 2.56666667,3.26666667 1.51666667,5.30833333 C1.16666667,6.00833333 0.875,6.76666667 0.758333333,7.58333333 C0.35,9.50833333 0.641666667,11.6083333 1.51666667,13.3583333 C2.1,14.525 2.91666667,15.5166667 3.96666667,16.3333333 C4.9,17.0916667 6.00833333,17.675 7.23333333,17.9666667 C8.75,18.375 10.325,18.375 11.7833333,18.025 C13.125,17.7333333 14.4083333,17.0916667 15.4583333,16.1 C16.5666667,15.1083333 17.325,13.825 17.7333333,12.3666667 C18.2,10.85 18.2583333,9.21666667 17.9666667,7.64166667 L9.56666667,7.64166667 L9.56666667,11.1416667 L14.4083333,11.1416667 C14.2333333,12.25 13.5333333,13.3 12.6,13.8833333 C12.0166667,14.2916667 11.3166667,14.525 10.6166667,14.6416667 C9.91666667,14.7583333 9.15833333,14.7583333 8.45833333,14.6416667 C7.75833333,14.525 7.05833333,14.175 6.475,13.7666667 C5.54166667,13.125 4.78333333,12.1333333 4.43333333,11.025 C4.025,9.91666667 4.025,8.69166667 4.43333333,7.525 C4.725,6.76666667 5.13333333,6.00833333 5.71666667,5.425 C6.41666667,4.66666667 7.35,4.14166667 8.4,3.96666667 C9.275,3.79166667 10.15,3.79166667 11.025,4.08333333 C11.725,4.31666667 12.425,4.725 12.95,5.19166667 C13.475,4.66666667 14.0583333,4.08333333 14.5833333,3.55833333 C14.875,3.26666667 15.1666667,2.975 15.4583333,2.68333333 C14.6416667,1.925 13.65,1.28333333 12.6,0.875 C10.675,0.233333333 8.51666667,0.233333333 6.59166667,0.875 L6.59166667,0.875 Z"/>
      <path fill="#EA4335" d="M6.59166667,0.875 C8.51666667,0.233333333 10.675,0.233333333 12.6,0.933333333 C13.65,1.34166667 14.6416667,1.925 15.4583333,2.74166667 C15.1666667,3.03333333 14.875,3.325 14.5833333,3.61666667 L12.95,5.25 C12.425,4.725 11.725,4.31666667 11.025,4.14166667 C10.2083333,3.90833333 9.275,3.85 8.4,4.025 C7.40833333,4.25833333 6.475,4.78333333 5.71666667,5.48333333 C5.13333333,6.06666667 4.66666667,6.825 4.43333333,7.58333333 C3.44166667,6.825 2.50833333,6.06666667 1.51666667,5.30833333 C2.56666667,3.26666667 4.43333333,1.63333333 6.59166667,0.875 L6.59166667,0.875 Z"/>
      <path fill="#FBBC05" d="M0.758333333,7.58333333 C0.933333333,6.825 1.16666667,6.06666667 1.51666667,5.30833333 C2.50833333,6.06666667 3.44166667,6.825 4.43333333,7.58333333 C4.025,8.69166667 4.025,9.91666667 4.43333333,11.0833333 C3.44166667,11.8416667 2.50833333,12.6 1.51666667,13.3583333 C0.641666667,11.55 0.35,9.50833333 0.758333333,7.58333333 L0.758333333,7.58333333 Z"/>
      <path fill="#4285F4" d="M9.50833333,7.64166667 L17.9083333,7.64166667 C18.2,9.21666667 18.1416667,10.85 17.675,12.3666667 C17.2666667,13.7666667 16.5083333,15.05 15.4,16.1 C14.4666667,15.3416667 13.5333333,14.6416667 12.5416667,13.8833333 C13.475,13.2416667 14.1166667,12.25 14.35,11.1416667 L9.50833333,11.1416667 C9.50833333,9.975 9.50833333,8.80833333 9.50833333,7.64166667 L9.50833333,7.64166667 Z"/>
      <path fill="#34A853" d="M1.51666667,13.3583333 C2.50833333,12.6 3.44166667,11.8416667 4.43333333,11.0833333 C4.78333333,12.1916667 5.54166667,13.1833333 6.475,13.825 C7.05833333,14.2333333 7.75833333,14.525 8.45833333,14.7 C9.15833333,14.8166667 9.85833333,14.8166667 10.6166667,14.7 C11.3166667,14.5833333 12.0166667,14.2916667 12.6,13.9416667 C13.5333333,14.7 14.4666667,15.4 15.4583333,16.1583333 C14.4083333,17.0916667 13.1833333,17.7333333 11.7833333,18.0833333 C10.2666667,18.4333333 8.69166667,18.4333333 7.23333333,18.025 C6.06666667,17.7333333 4.95833333,17.15 3.96666667,16.3916667 C2.975,15.5166667 2.1,14.4666667 1.51666667,13.3583333 L1.51666667,13.3583333 Z"/>
    </g>
  </g>
</svg>
