<svg xmlns="http://www.w3.org/2000/svg" width="24" height="24" viewBox="0 0 24 24">
    <path fill="#5C6266" fill-rule="evenodd" d="M19.496 19.5c.83 0 1.504-.666 1.504-1.5 0-.828-.662-1.5-1.504-1.5H4.504C3.674 16.5 3 17.166 3 18c0 .828.662 1.5 1.504 1.5h14.992zm0-6c.83 0 1.504-.666 1.504-1.5 0-.828-.662-1.5-1.504-1.5H4.504C3.674 10.5 3 11.166 3 12c0 .828.662 1.5 1.504 1.5h14.992zM3 6c0 .828.662 1.5 1.504 1.5h14.992C20.326 7.5 21 6.834 21 6c0-.828-.662-1.5-1.504-1.5H4.504C3.674 4.5 3 5.166 3 6z"/>
</svg>
